<!-- Generated by IcoMoon.io -->
<svg version="1.1" xmlns="http://www.w3.org/2000/svg" width="27" height="32" viewBox="0 0 27 32">
<title>circle-dot</title>
<path d="M0 16q0-3.744 1.856-6.88t4.96-4.992 6.912-1.856 6.88 1.856 4.992 4.992 1.824 6.88-1.824 6.88-4.992 4.992-6.88 1.856-6.912-1.856-4.96-4.992-1.856-6.88zM4 16q0 2.656 1.312 4.864t3.52 3.552 4.896 1.312 4.864-1.312 3.52-3.552 1.312-4.864-1.312-4.864-3.52-3.552-4.864-1.312-4.896 1.312-3.52 3.552-1.312 4.864zM9.152 16q0-1.888 1.344-3.232t3.232-1.344 3.232 1.344 1.312 3.232-1.312 3.232-3.232 1.344-3.232-1.344-1.344-3.232z"></path>
</svg>
