<!-- Generated by IcoMoon.io -->
<svg version="1.1" xmlns="http://www.w3.org/2000/svg" width="27" height="32" viewBox="0 0 27 32">
<title>instagramm</title>
<path d="M0 26.208v-20.416q0-1.44 1.024-2.464t2.496-1.056h20.384q1.44 0 2.496 1.056t1.024 2.464v20.416q0 1.44-1.024 2.464t-2.496 1.056h-20.384q-1.44 0-2.496-1.056t-1.024-2.464zM3.040 25.472q0 0.448 0.32 0.768t0.8 0.32h19.072q0.448 0 0.768-0.32t0.32-0.768v-11.584h-2.4q0.352 1.12 0.352 2.336 0 2.272-1.152 4.16t-3.104 3.008-4.288 1.12q-3.52 0-6.016-2.432t-2.496-5.856q0-1.216 0.352-2.336h-2.528v11.584zM8.224 15.936q0 2.208 1.632 3.776t3.872 1.568q2.304 0 3.904-1.568t1.632-3.776-1.632-3.776-3.904-1.568q-2.272 0-3.872 1.568t-1.632 3.776zM18.752 9.504q0 0.544 0.352 0.896t0.864 0.352h3.136q0.512 0 0.864-0.352t0.352-0.896v-2.944q0-0.48-0.352-0.864t-0.864-0.352h-3.136q-0.512 0-0.864 0.352t-0.352 0.864v2.944z"></path>
</svg>
