<!-- Generated by IcoMoon.io -->
<svg version="1.1" xmlns="http://www.w3.org/2000/svg" width="27" height="32" viewBox="0 0 27 32">
<title>login</title>
<path d="M0 19.424v-6.848q0-0.48 0.352-0.8t0.8-0.352h8v-5.152q0-0.448 0.32-0.8t0.8-0.32 0.832 0.32l9.696 9.728q0.352 0.32 0.352 0.8t-0.352 0.8l-9.696 9.728q-0.352 0.32-0.832 0.32t-0.8-0.32-0.32-0.8v-5.152h-8q-0.48 0-0.8-0.352t-0.352-0.8zM15.968 26.016q0-0.192 0.064-0.416t0.16-0.352 0.384-0.096h5.696q1.184 0 2.016-0.864t0.864-2.016v-12.544q0-1.184-0.864-2.016t-2.016-0.864h-5.568t-0.192 0-0.192-0.064-0.16-0.096-0.128-0.16-0.032-0.256q0-0.064-0.032-0.352t0-0.48 0.064-0.416 0.16-0.352 0.384-0.096h5.696q2.144 0 3.648 1.504t1.504 3.648v12.544q0 2.144-1.504 3.648t-3.648 1.504h-5.696q-0.224 0-0.416-0.16t-0.16-0.416q0-0.064-0.032-0.352t0-0.48z"></path>
</svg>
