<svg xmlns="http://www.w3.org/2000/svg" width="66" height="66" viewbox="0 0 66 66">
  <path fill="#63a63e" fill-rule="evenodd" d="M32.98 65.234C15.19 65.234.768 50.81.768 33.02S15.19.806 32.98.806c17.792 0 32.215 14.423 32.215 32.214 0 17.79-14.423 32.214-32.214 32.214z" />
  <path fill="#FFF" fill-rule="evenodd" d="M53.475 26.472l-23.11 23.11c-.47.47-1.238.47-1.707 0l-3.416-3.448c-.47-.477-1.24-1.25-1.708-1.728l-7.946-8.35c-.233-.237-.358-.566-.358-.88 0-.31.125-.61.358-.846l3.482-3.138c.235-.242.55-.358.862-.355.306 0 .612.12.846.355l7.88 8.04c.47.48 1.237.48 1.708 0l17.987-17.934c.47-.475 1.237-.475 1.706 0l3.413 3.45c.47.472.47 1.25 0 1.724z"/>
</svg>
