<!-- Generated by IcoMoon.io -->
<svg version="1.1" xmlns="http://www.w3.org/2000/svg" width="33" height="32" viewBox="0 0 33 32">
<title>user</title>
<path d="M0 31.008q0-0.288 0.032-0.736t0.352-1.504 0.864-1.568q0.544-0.544 2.176-1.216t3.68-1.376 2.976-1.216q1.216-0.608 1.888-1.792t0.64-2.432q0-0.864-1.024-2.016-1.056-1.216-1.696-3.264t-0.64-4.768q0-2.048 0.576-3.616t1.568-2.56 2.272-1.44 2.72-0.48 2.72 0.48 2.272 1.44 1.568 2.56 0.576 3.616q0 2.688-0.64 4.768t-1.664 3.264q-1.056 1.184-1.056 2.016 0 1.248 0.672 2.432t1.888 1.792q0.928 0.48 2.976 1.216t3.648 1.376 2.176 1.216q0.544 0.544 0.864 1.504t0.352 1.632l0.032 0.672h-32.768z"></path>
</svg>
