<svg xmlns="http://www.w3.org/2000/svg" xmlns:xlink="http://www.w3.org/1999/xlink"><symbol viewBox="0 0 29 32" id="icon_basket" xmlns="http://www.w3.org/2000/svg"><title>basket</title><path d="M4.8 27.2q0-1.28.96-2.24T8 24q1.344 0 2.272.96t.928 2.24q0 1.344-.928 2.272T8 30.4q-1.28 0-2.24-.928T4.8 27.2zm16 0q0-1.28.96-2.24T24 24q1.344 0 2.272.96t.928 2.24q0 1.344-.928 2.272T24 30.4q-1.28 0-2.24-.928T20.8 27.2zm-10.304-7.552q-1.152.32-1.088.736t1.408.416H28.8v2.432q0 .64-.64.64H7.232q-.64 0-.64-.64V20.8l-.32-1.472L3.136 4.8H0V2.24q0-.64.64-.64h4.992q.64 0 .64.64v2.752H28.8v8.768q0 .704-.576.832z"/></symbol><symbol viewBox="0 0 23 32" id="icon_bookmark" xmlns="http://www.w3.org/2000/svg"><title>bookmark</title><path d="M0 27.296V4.288q0-.608.352-1.12t.928-.736q.384-.16.8-.16H20.8q.384 0 .768.16.608.256.928.736t.352 1.12v23.008q0 .608-.352 1.12t-.928.736q-.32.128-.768.128-.864 0-1.504-.576l-7.872-7.552-7.872 7.552q-.64.608-1.472.608-.416 0-.8-.16-.576-.224-.928-.736T0 27.296z"/></symbol><symbol viewBox="0 0 25 32" id="icon_check-off" xmlns="http://www.w3.org/2000/svg"><title>check-off</title><path d="M0 22.272V7.424q0-2.112 1.504-3.616t3.648-1.536H20q2.112 0 3.648 1.536t1.504 3.616v14.848q0 2.144-1.504 3.648T20 27.424H5.152q-2.144 0-3.648-1.504T0 22.272zm2.272 0q0 1.184.864 2.016t2.016.864H20q1.184 0 2.016-.864t.832-2.016V7.424q0-1.184-.832-2.016T20 4.576H5.152q-1.184 0-2.016.832t-.864 2.016v14.848z"/></symbol><symbol viewBox="0 0 30 32" id="icon_check-on" xmlns="http://www.w3.org/2000/svg"><title>check-on</title><path d="M0 22.272V7.424q0-2.112 1.504-3.616t3.648-1.536H20q1.12 0 2.08.448.288.128.32.416.064.32-.16.512l-.864.896q-.192.16-.416.16-.064 0-.16-.032-.416-.096-.8-.096H5.152q-1.184 0-2.016.832t-.864 2.016v14.848q0 1.184.864 2.016t2.016.864H20q1.184 0 2.016-.864t.832-2.016V17.76q0-.256.16-.416l1.152-1.12q.192-.192.416-.192.096 0 .224.064.352.128.352.512v5.664q0 2.144-1.504 3.648T20 27.424H5.152q-2.144 0-3.648-1.504T0 22.272zm4.576-8.544q0-.608.448-1.024l1.952-1.984q.448-.416 1.024-.416t1.024.416l4.704 4.704L25.28 3.872q.416-.416.992-.416t1.024.416l1.984 1.952q.416.448.416 1.024t-.416 1.024L14.72 22.4q-.416.448-.992.448t-1.024-.448l-7.68-7.68q-.448-.416-.448-.992z"/></symbol><symbol viewBox="0 0 27 32" id="icon_circle" xmlns="http://www.w3.org/2000/svg"><title>circle</title><path d="M0 16q0-3.744 1.856-6.88t4.96-4.992 6.912-1.856 6.88 1.856T25.6 9.12 27.424 16 25.6 22.88t-4.992 4.992-6.88 1.856-6.912-1.856-4.96-4.992T0 16zm4 0q0 2.656 1.312 4.864t3.52 3.552 4.896 1.312 4.864-1.312 3.52-3.552T23.424 16t-1.312-4.864-3.52-3.552-4.864-1.312-4.896 1.312-3.52 3.552T4 16z"/></symbol><symbol viewBox="0 0 27 32" id="icon_circle-dot" xmlns="http://www.w3.org/2000/svg"><title>circle-dot</title><path d="M0 16q0-3.744 1.856-6.88t4.96-4.992 6.912-1.856 6.88 1.856T25.6 9.12 27.424 16 25.6 22.88t-4.992 4.992-6.88 1.856-6.912-1.856-4.96-4.992T0 16zm4 0q0 2.656 1.312 4.864t3.52 3.552 4.896 1.312 4.864-1.312 3.52-3.552T23.424 16t-1.312-4.864-3.52-3.552-4.864-1.312-4.896 1.312-3.52 3.552T4 16zm5.152 0q0-1.888 1.344-3.232t3.232-1.344 3.232 1.344T18.272 16t-1.312 3.232-3.232 1.344-3.232-1.344T9.152 16z"/></symbol><symbol viewBox="0 0 28 32" id="icon_down" xmlns="http://www.w3.org/2000/svg"><title>down</title><path d="M2.016 8.96l11.84 11.392L25.76 8.96q.704-.832 1.536 0 .832.704 0 1.536L14.624 23.04q-.704.704-1.536 0L.416 10.496q-.832-.832 0-1.536.768-.768 1.6 0z"/></symbol><symbol viewBox="0 0 15 32" id="icon_down-dir" xmlns="http://www.w3.org/2000/svg"><title>down-dir</title><path d="M14.72 9.6L7.36 22.4 0 9.6h14.72z"/></symbol><symbol viewBox="0 0 18 32" id="icon_facebook" xmlns="http://www.w3.org/2000/svg"><title>facebook</title><path d="M1.696 16.16v-5.28H6.24V6.976q0-3.328 1.856-5.152T13.056 0q2.624 0 4.064.224v4.704h-2.784q-1.536 0-2.08.64t-.544 1.92v3.392h5.248l-.704 5.28h-4.544v13.568H6.24V16.16H1.696z"/></symbol><symbol viewBox="0 0 30 32" id="icon_home" xmlns="http://www.w3.org/2000/svg"><title>home</title><path d="M.48 16.064q0-.256.192-.384L13.504 4.992q.576-.48 1.344-.48t1.376.48l4.352 3.648V5.152q0-.256.16-.416t.416-.16h3.424q.256 0 .416.16t.16.416v7.264l3.904 3.264q.16.16.192.384t-.128.416l-1.088 1.312q-.16.16-.384.224h-.064q-.224 0-.384-.128L14.848 7.584 2.496 17.888q-.224.128-.416.128-.224-.064-.384-.224L.576 16.48q-.128-.16-.096-.416zm4.096 10.208v-8.544-.064-.064l10.272-8.448L25.12 17.6q.032.032.032.128v8.544q0 .48-.352.832t-.8.32h-6.848v-6.848h-4.576v6.848H5.728q-.48 0-.8-.32t-.352-.832z"/></symbol><symbol viewBox="0 0 27 32" id="icon_instagram" xmlns="http://www.w3.org/2000/svg"><title>instagram</title><path d="M0 26.208V5.792q0-1.44 1.024-2.464T3.52 2.272h20.384q1.44 0 2.496 1.056t1.024 2.464v20.416q0 1.44-1.024 2.464t-2.496 1.056H3.52q-1.44 0-2.496-1.056T0 26.208zm3.04-.736q0 .448.32.768t.8.32h19.072q.448 0 .768-.32t.32-.768V13.888h-2.4q.352 1.12.352 2.336 0 2.272-1.152 4.16t-3.104 3.008-4.288 1.12q-3.52 0-6.016-2.432t-2.496-5.856q0-1.216.352-2.336H3.04v11.584zm5.184-9.536q0 2.208 1.632 3.776t3.872 1.568q2.304 0 3.904-1.568t1.632-3.776-1.632-3.776-3.904-1.568q-2.272 0-3.872 1.568t-1.632 3.776zm10.528-6.432q0 .544.352.896t.864.352h3.136q.512 0 .864-.352t.352-.896V6.56q0-.48-.352-.864t-.864-.352h-3.136q-.512 0-.864.352t-.352.864v2.944z"/></symbol><symbol viewBox="0 0 15 32" id="icon_left" xmlns="http://www.w3.org/2000/svg"><title>left</title><path d="M14.464 27.84q.832.832 0 1.536-.832.832-1.536 0L.384 16.768q-.768-.768 0-1.6L12.928 2.56q.704-.832 1.536 0 .832.704 0 1.536L3.008 16z"/></symbol><symbol viewBox="0 0 27 32" id="icon_left-big" xmlns="http://www.w3.org/2000/svg"><title>left-big</title><path d="M1.152 17.152q0-.928.64-1.632L13.44 3.904q.672-.672 1.6-.672t1.632.672l1.344 1.344q.672.672.672 1.6t-.672 1.632l-5.248 5.248h12.576q.928 0 1.504.64T27.424 16v2.272q0 .96-.576 1.632t-1.504.672H12.768l5.248 5.248q.672.64.672 1.6t-.672 1.6L16.672 30.4q-.672.64-1.632.64-.928 0-1.6-.64L1.792 18.752q-.64-.672-.64-1.6z"/></symbol><symbol viewBox="0 0 27 32" id="icon_login" xmlns="http://www.w3.org/2000/svg"><title>login</title><path d="M0 19.424v-6.848q0-.48.352-.8t.8-.352h8V6.272q0-.448.32-.8t.8-.32.832.32L20.8 15.2q.352.32.352.8t-.352.8l-9.696 9.728q-.352.32-.832.32t-.8-.32-.32-.8v-5.152h-8q-.48 0-.8-.352t-.352-.8zm15.968 6.592q0-.192.064-.416t.16-.352.384-.096h5.696q1.184 0 2.016-.864t.864-2.016V9.728q0-1.184-.864-2.016t-2.016-.864h-5.76l-.192-.064-.16-.096-.128-.16L16 6.272q0-.064-.032-.352t0-.48.064-.416.16-.352.384-.096h5.696q2.144 0 3.648 1.504t1.504 3.648v12.544q0 2.144-1.504 3.648t-3.648 1.504h-5.696q-.224 0-.416-.16t-.16-.416q0-.064-.032-.352t0-.48z"/></symbol><symbol viewBox="0 0 30 32" id="icon_logout" xmlns="http://www.w3.org/2000/svg"><title>logout</title><path d="M0 22.272V9.728Q0 7.584 1.504 6.08t3.648-1.504h5.696q.256 0 .416.16t.16.416q0 .064.032.352t0 .48-.064.416-.16.352-.384.096H5.152q-1.184 0-2.016.864t-.864 2.016v12.544q0 1.184.864 2.016t2.016.864h5.76l.224.064.128.096.128.16.032.256q0 .064.032.352t0 .448-.064.448-.16.352-.384.096H5.152q-2.144 0-3.648-1.504T0 22.272zm6.848-2.848v-6.848q0-.48.352-.8t.8-.352h8V6.272q0-.448.352-.8t.8-.32.8.32l9.696 9.728q.352.32.352.8t-.352.8l-9.696 9.728q-.352.32-.8.32t-.8-.32-.352-.8v-5.152H8q-.448 0-.8-.352t-.352-.8z"/></symbol><symbol viewBox="0 0 25 32" id="icon_phone" xmlns="http://www.w3.org/2000/svg"><title>phone</title><path d="M0 8.352q0-1.664.928-3.328Q1.92 3.2 2.816 2.848q.448-.192 1.216-.384t1.248-.192q.256 0 .384.064.32.096.96 1.376.192.32.512.96t.64 1.12.544.96q.064.064.32.448t.384.64.128.512q0 .352-.512.864t-1.12.992-1.088.96-.512.8q0 .16.096.416t.128.352.256.448.224.32q1.344 2.464 3.104 4.224t4.192 3.104q.032 0 .32.192t.448.256.352.16.416.064q.32 0 .8-.48t.96-1.12.992-1.12.896-.512q.224 0 .48.128t.64.384.448.32q.448.256.96.544t1.152.64.96.544q1.248.608 1.344.928.064.128.064.384 0 .48-.192 1.248t-.384 1.216q-.352.896-2.176 1.92-1.664.896-3.296.896-.512 0-.96-.064t-1.024-.224-.832-.256-.992-.352-.896-.32q-1.728-.64-3.104-1.504-2.304-1.408-4.736-3.84t-3.84-4.736q-.864-1.376-1.472-3.104-.064-.16-.32-.896t-.384-.992-.256-.832T.064 9.28 0 8.352z"/></symbol><symbol viewBox="0 0 15 32" id="icon_right" xmlns="http://www.w3.org/2000/svg"><title>right</title><path d="M.416 27.84L11.872 16 .416 4.096q-.832-.832 0-1.536.832-.832 1.536 0l12.544 12.608q.768.832 0 1.6L1.952 29.376q-.704.832-1.536 0-.832-.704 0-1.536z"/></symbol><symbol viewBox="0 0 27 32" id="icon_right-big" xmlns="http://www.w3.org/2000/svg"><title>right-big</title><path d="M0 18.272V16q0-.96.576-1.632t1.504-.64h12.576L9.44 8.48q-.704-.672-.704-1.632t.704-1.6l1.344-1.344q.672-.672 1.6-.672t1.632.672L25.632 15.52q.64.64.64 1.632 0 .96-.64 1.6L14.016 30.4q-.704.64-1.632.64t-1.6-.64L9.44 29.056q-.704-.672-.704-1.632t.704-1.632l5.216-5.216H2.08q-.928 0-1.504-.672T0 18.272z"/></symbol><symbol viewBox="0 0 66 66" id="icon_round-check" xmlns="http://www.w3.org/2000/svg"><path fill="#63a63e" fill-rule="evenodd" d="M32.98 65.234C15.19 65.234.768 50.81.768 33.02S15.19.806 32.98.806c17.792 0 32.215 14.423 32.215 32.214 0 17.79-14.423 32.214-32.214 32.214z"/><path fill="#FFF" fill-rule="evenodd" d="M53.475 26.472l-23.11 23.11a1.21 1.21 0 0 1-1.707 0l-3.416-3.448c-.47-.477-1.24-1.25-1.708-1.728l-7.946-8.35a1.274 1.274 0 0 1-.358-.88c0-.31.125-.61.358-.846l3.482-3.138a1.18 1.18 0 0 1 .862-.355c.306 0 .612.12.846.355l7.88 8.04c.47.48 1.237.48 1.708 0l17.987-17.934a1.2 1.2 0 0 1 1.706 0l3.413 3.45c.47.472.47 1.25 0 1.724z"/></symbol><symbol viewBox="0 0 30 32" id="icon_search" xmlns="http://www.w3.org/2000/svg"><title>search</title><path d="M0 14.848q0-2.56.992-4.864T3.68 5.952t4-2.688 4.896-.992 4.864.992 4.032 2.688 2.688 4.032.992 4.864q0 3.936-2.208 7.136l6.112 6.112q.672.672.672 1.632 0 .928-.704 1.6t-1.6.672q-.96 0-1.6-.672l-6.112-6.112q-3.2 2.208-7.136 2.208-2.56 0-4.896-.992t-4-2.656-2.688-4.032T0 14.848zm4.576 0q0 3.296 2.336 5.664t5.664 2.336 5.632-2.336 2.368-5.664-2.368-5.632-5.632-2.368-5.664 2.368-2.336 5.632z"/></symbol><symbol viewBox="0 0 28 32" id="icon_star" xmlns="http://www.w3.org/2000/svg"><title>star</title><path d="M14.08 1.92l3.84 10.752h10.24l-8.384 6.272 3.008 11.136-8.704-6.656-8.704 6.656 3.008-11.136L0 12.672h10.24z"/></symbol><symbol viewBox="0 0 30 32" id="icon_twitter" xmlns="http://www.w3.org/2000/svg"><title>twitter</title><path d="M.8 24.832q.608.064 1.376.064 4.032 0 7.168-2.464-1.888-.032-3.36-1.152t-2.048-2.848q.608.096 1.088.096.768 0 1.536-.192-2.016-.416-3.328-1.984t-1.312-3.68v-.064q1.216.672 2.624.736-1.184-.8-1.888-2.048t-.704-2.752q0-1.568.8-2.912Q4.896 8.288 8 9.888t6.656 1.76q-.16-.672-.16-1.312 0-2.4 1.696-4.064t4.064-1.696q2.496 0 4.224 1.824 1.952-.384 3.648-1.408-.64 2.048-2.528 3.2 1.664-.192 3.328-.896-1.184 1.728-2.88 2.976v.736q0 2.336-.672 4.64t-2.048 4.448-3.296 3.744-4.608 2.624-5.792.96Q4.8 27.424.8 24.832z"/></symbol><symbol viewBox="0 0 28 32" id="icon_up" xmlns="http://www.w3.org/2000/svg"><title>up</title><path d="M25.728 23.04L13.824 11.584 1.984 23.04q-.832.704-1.6 0-.768-.768 0-1.6L13.056 8.96q.832-.832 1.536 0l12.672 12.48q.768.832 0 1.6-.832.704-1.536 0z"/></symbol><symbol viewBox="0 0 15 32" id="icon_up-dir" xmlns="http://www.w3.org/2000/svg"><title>up-dir</title><path d="M0 22.4L7.36 9.6l7.36 12.8H0z"/></symbol><symbol viewBox="0 0 33 32" id="icon_user" xmlns="http://www.w3.org/2000/svg"><title>user</title><path d="M0 31.008q0-.288.032-.736t.352-1.504.864-1.568q.544-.544 2.176-1.216t3.68-1.376 2.976-1.216q1.216-.608 1.888-1.792t.64-2.432q0-.864-1.024-2.016-1.056-1.216-1.696-3.264t-.64-4.768q0-2.048.576-3.616t1.568-2.56 2.272-1.44 2.72-.48 2.72.48 2.272 1.44 1.568 2.56.576 3.616q0 2.688-.64 4.768t-1.664 3.264q-1.056 1.184-1.056 2.016 0 1.248.672 2.432t1.888 1.792q.928.48 2.976 1.216t3.648 1.376T31.52 27.2q.544.544.864 1.504t.352 1.632l.032.672H0z"/></symbol><symbol viewBox="0 0 34 32" id="icon_vk" xmlns="http://www.w3.org/2000/svg"><title>vk</title><path d="M-.032 9.504q0-.192.064-.288l.064-.096q.288-.352 1.024-.352l4.896-.032q.224.032.416.128t.288.128l.096.064q.288.192.416.576.352.896.832 1.856t.736 1.44l.288.512q.512 1.088.992 1.856t.864 1.216.736.704.608.256.48-.096l.096-.096q.064-.064.224-.384t.224-.832.16-1.472 0-2.208q-.032-.736-.16-1.312t-.224-.832l-.128-.192q-.448-.608-1.504-.768-.256-.032.096-.448.288-.32.672-.544.928-.448 4.256-.416 1.472.032 2.4.224.384.096.608.256t.384.416.16.576.064.832 0 .96-.064 1.28 0 1.472q0 .192-.032.736t0 .864.064.704.192.704.416.448q.128.032.288.064t.48-.192.672-.608.928-1.216 1.216-1.92q1.056-1.856 1.92-4 .064-.192.16-.32t.192-.192l.064-.064.096-.032.256-.064h.352l5.12-.032q.704-.096 1.152.032t.544.32l.128.16q.416 1.152-2.688 5.248-.416.576-1.152 1.536-1.408 1.792-1.6 2.336-.32.736.224 1.44.32.384 1.472 1.472h.032v.032l.032.032q2.528 2.336 3.424 3.936.064.096.128.224t.096.48 0 .608-.448.48-1.056.224l-4.576.096q-.416.064-.992-.096t-.928-.384l-.352-.224q-.544-.384-1.248-1.152t-1.216-1.376-1.088-1.024-1.024-.288q-.032 0-.128.064t-.32.256-.384.512-.288.928-.128 1.408q0 .256-.064.48t-.128.32l-.064.096q-.32.352-.96.384h-2.048q-1.28.096-2.592-.288t-2.368-.928-1.824-1.184-1.28-1.024l-.448-.448q-.16-.16-.48-.512t-1.28-1.632-1.888-2.688-2.176-3.776T.096 9.984q-.128-.288-.128-.48z"/></symbol><symbol viewBox="0 0 27 32" id="icon_youtube" xmlns="http://www.w3.org/2000/svg"><title>youtube</title><path d="M20.416 16.032L8.32 9.952v12.16zM2.528 5.472h22.048c1.792 0 2.56.768 2.56 2.528v16.032c0 1.664-.768 2.528-2.56 2.528H2.528C.896 26.56 0 25.696 0 24.032V8c0-1.76.896-2.656 2.528-2.528z"/></symbol></svg>